# xmcd
#
# Track frame offsets: 
#        150
#        6415
#        14052
#        20852
#        25690
#        35877
#        50427
#        63627
#        77615
#        88752
#        96552
#        107390
#        120890
#        132777
#        140427
#        148040
#        162177
#        183477
#        199977
#        221427
#        242127
#        272100
#
# Disc length: 4302 seconds
#
# Revision: 0
# Processed by: cddbd v1.5.1PL0 Copyright (c) Steve Scherf et al.
# Submitted via: ExactAudioCopy v0.95b2
#
DISCID=4110cc16
DTITLE=Original Broadway Cast - It Ain't Nothin' But the Blues
DYEAR=1999
DGENRE=Folk
TTITLE0=Odun De
TTITLE1=Niwah Wechi
TTITLE2=Blood Done Signed My Name
TTITLE3=I'm Gonna Do What the Spirit Says Do
TTITLE4=Iv' Been Livin' With the Blues
TTITLE5=Blues Man
TTITLE6=My Man Rocks Me
TTITLE7=St. Louis Blues
TTITLE8=Walkin' Blues
TTITLE9=Cross Road Blues
TTITLE10=I Know I've Been Changed
TTITLE11=Children, Your Line Is Draggin'
TTITLE12=Cateh on Fire
TTITLE13=Let the Good Times Roll
TTITLE14=Sweet Home Chicago
TTITLE15=Someone Else Is Steppin' In
TTITLE16=I'm Your Hoochie Coochie Man
TTITLE17=The Thrill Is Gone
TTITLE18=Fever
TTITLE19=Good Night, Irene
TTITLE20=Members Only
TTITLE21=Data
EXTD=
EXTT0=
EXTT1=
EXTT2=
EXTT3=
EXTT4=
EXTT5=
EXTT6=
EXTT7=
EXTT8=
EXTT9=
EXTT10=
EXTT11=
EXTT12=
EXTT13=
EXTT14=
EXTT15=
EXTT16=
EXTT17=
EXTT18=
EXTT19=
EXTT20=
EXTT21=
PLAYORDER=
